<svg aria-hidden="true" style="position: absolute; width: 0; height: 0; overflow: hidden;" version="1.1" xmlns="http://www.w3.org/2000/svg" xmlns:xlink="http://www.w3.org/1999/xlink">
<defs>
<symbol id="ae" viewBox="0 0 32 32"><path fill="#000" style="fill: var(--color1, #000)" d="M1.511 1.36h29.397v29.125h-29.397v-29.125z"></path><path fill="#d8a1ff" style="fill: var(--color2, #d8a1ff)" d="M1.511 1.36h29.397v29.125h-29.397v-29.125zM0.175 31.846h32.075v-31.846h-32.075v31.846zM22.867 15.351c0.681 0 0.925 0 0.989-0.026 0-0.098 0.026-0.164 0.026-0.229 0-0.733-0.347-2.093-1.734-2.093-1.285 0-1.83 1.145-1.965 2.355h2.685v-0.007zM20.156 17.215c0.026 1.838 0.88 3.074 2.916 3.074 0.79 0 1.471-0.111 2.177-0.419 0.096-0.039 0.161-0.026 0.161 0.098v1.701c0 0.137-0.039 0.203-0.135 0.275-0.707 0.353-1.593 0.517-2.685 0.517-3.526 0-4.849-2.655-4.849-5.605 0-3.211 1.631-5.841 4.502-5.841 2.916 0 3.931 2.492 3.931 4.52 0 0.654-0.038 1.184-0.109 1.445-0.026 0.111-0.064 0.15-0.173 0.177-0.27 0.039-1.053 0.098-2.229 0.098h-3.5v-0.039h-0.006zM12.988 15.828c-0.373-1.511-1.285-4.801-1.619-6.397h-0.026c-0.283 1.589-1.015 4.284-1.561 6.397h3.205zM9.238 18.032l-1.053 4.068c-0.026 0.111-0.064 0.15-0.199 0.15h-1.972c-0.135 0-0.161-0.039-0.135-0.203l3.796-13.513c0.064-0.242 0.109-0.438 0.135-1.118 0-0.098 0.039-0.137 0.109-0.137h2.807c0.096 0 0.135 0.026 0.161 0.137l4.245 14.658c0.026 0.111 0 0.177-0.109 0.177h-2.203c-0.109 0-0.173-0.039-0.199-0.137l-1.098-4.081h-4.284z"></path></symbol>
<symbol id="ai" viewBox="0 0 32 32"><path fill="#000" style="fill: var(--color1, #000)" d="M1.511 1.36h29.397v29.125h-29.397v-29.125z"></path><path fill="#ff7f18" style="fill: var(--color3, #ff7f18)" d="M1.511 1.36h29.397v29.125h-29.397v-29.125zM0.175 31.846h32.075v-31.846h-32.075v31.846zM21.184 11.354c0-0.111 0.039-0.164 0.161-0.164h2.1c0.109 0 0.161 0.039 0.161 0.164v10.74c0 0.111-0.026 0.164-0.161 0.164h-2.075c-0.135 0-0.173-0.065-0.173-0.177v-10.727h-0.013zM21.036 8.261c0-0.87 0.604-1.387 1.362-1.387 0.816 0 1.362 0.556 1.362 1.387 0 0.896-0.572 1.387-1.387 1.387-0.771 0.007-1.336-0.484-1.336-1.387zM15.024 15.828c-0.373-1.511-1.259-4.801-1.593-6.397h-0.026c-0.283 1.589-0.989 4.284-1.548 6.397h3.166zM11.312 18.032l-1.053 4.081c-0.026 0.111-0.064 0.137-0.199 0.137h-1.965c-0.135 0-0.161-0.039-0.135-0.203l3.796-13.526c0.064-0.242 0.109-0.464 0.135-1.132 0-0.098 0.039-0.137 0.109-0.137h2.807c0.096 0 0.135 0.026 0.161 0.137l4.252 14.684c0.026 0.111 0 0.177-0.109 0.177h-2.216c-0.109 0-0.173-0.026-0.199-0.124l-1.098-4.094h-4.284z"></path></symbol>
<symbol id="ball" viewBox="0 0 32 32"><path d="M15.643 0c-8.619 0-15.643 7.184-15.643 15.999s7.024 15.999 15.643 15.999c8.619 0 15.643-7.184 15.643-15.999s-7.024-15.999-15.643-15.999zM15.643 2.461c3.144 0 6.017 1.115 8.28 2.984-1.151 1.446-3.264 3.454-6.806 4.769-1.925-3.561-3.535-5.838-4.655-7.346 1.015-0.254 2.083-0.408 3.181-0.408zM10.078 3.731c0.94 1.238 2.64 3.569 4.663 7.215-5.197 1.392-9.89 1.485-11.845 1.423 1.045-3.846 3.693-6.992 7.182-8.638zM25.654 7.154c2.001 2.377 3.226 5.461 3.226 8.846 0 0.508-0.030 1-0.083 1.492-0.436-0.062-0.76-0.115-1.316-0.162-1.865-0.146-4.332-0.146-7.002 0.262-0.699-1.854-1.467-3.569-2.256-5.177 3.715-1.454 6.069-3.6 7.431-5.261zM15.884 13.176c0.76 1.523 1.497 3.154 2.181 4.907-3.166 0.961-6.047 3.154-8.258 5.192-1.181 1.077-2.151 2.108-2.873 2.915-2.775-2.484-4.535-6.115-4.535-10.184 0-0.408 0.030-0.792 0.060-1.185 1.715 0.069 7.197 0.123 13.425-1.646zM23.848 19.714c1.85-0.069 3.309 0.062 4.467 0.192-0.872 3.008-2.745 5.569-5.22 7.292-0.399-2.531-1.015-4.961-1.76-7.253 0.865-0.115 1.715-0.192 2.512-0.231zM18.93 20.391c0.857 2.531 1.534 5.231 1.918 8.061-1.602 0.692-3.354 1.085-5.212 1.085-2.474 0-4.768-0.7-6.746-1.892 0.669-0.731 1.497-1.615 2.52-2.546 2.128-1.954 4.904-3.946 7.521-4.708z"></path></symbol>
<symbol id="be" viewBox="0 0 32 32"><path stroke-linejoin="miter" stroke-linecap="butt" stroke-miterlimit="4" stroke-width="0.3902" d="M26.72 0.169h-22.134c-2.529 0-4.586 2.051-4.586 4.573v22.073c0 2.522 2.057 4.573 4.586 4.573h22.134c2.529 0 4.586-2.052 4.586-4.573v-22.073c0-2.522-2.057-4.573-4.586-4.573zM29.472 26.816c0 1.513-1.234 2.744-2.752 2.744h-22.134c-1.517 0-2.752-1.231-2.752-2.744v-22.073c0-1.513 1.234-2.744 2.752-2.744h22.134c1.517 0 2.752 1.231 2.752 2.744v22.073z"></path><path stroke-linejoin="miter" stroke-linecap="butt" stroke-miterlimit="4" stroke-width="0.3902" d="M14.736 13.035c0-2.017-1.646-3.659-3.669-3.659h-5.503v12.805h5.503c2.023 0 3.669-1.641 3.669-3.659 0-1.092-0.483-2.073-1.246-2.744 0.763-0.671 1.246-1.652 1.246-2.744zM12.902 18.523c0 1.009-0.823 1.829-1.834 1.829h-3.669v-3.659h3.669c1.011 0 1.834 0.821 1.834 1.829zM7.399 14.864v-3.659h3.669c1.011 0 1.834 0.821 1.834 1.829s-0.823 1.829-1.834 1.829h-3.669z"></path><path stroke-linejoin="miter" stroke-linecap="butt" stroke-miterlimit="4" stroke-width="0.3902" d="M21.156 13.035c-2.529 0-4.586 2.051-4.586 4.573s2.057 4.573 4.586 4.573c1.632 0 3.154-0.876 3.972-2.286l-1.588-0.916c-0.491 0.847-1.405 1.373-2.384 1.373-1.196 0-2.216-0.765-2.594-1.829h7.18v-0.915c0-2.522-2.057-4.573-4.586-4.573zM18.562 16.694c0.379-1.065 1.398-1.829 2.594-1.829s2.216 0.765 2.594 1.829h-5.189z"></path><path stroke-linejoin="miter" stroke-linecap="butt" stroke-miterlimit="4" stroke-width="0.3902" d="M17.487 9.377h7.337v1.829h-7.337v-1.829z"></path></symbol>
<symbol id="close" viewBox="0 0 32 32"><path d="M32 3.223l-3.223-3.223-12.777 12.777-12.777-12.777-3.223 3.223 12.777 12.777-12.777 12.777 3.223 3.223 12.777-12.777 12.777 12.777 3.223-3.223-12.777-12.777 12.777-12.777z"></path></symbol>
<symbol id="linkedIn" viewBox="0 0 32 32"><path stroke-linejoin="miter" stroke-linecap="butt" stroke-miterlimit="4" stroke-width="0.381" d="M26.882 0.655h-21.637c-2.472 0-4.483 2.006-4.483 4.471v21.579c0 2.465 2.011 4.471 4.483 4.471h21.637c2.472 0 4.483-2.006 4.483-4.471v-21.579c0-2.465-2.011-4.471-4.483-4.471zM29.572 26.705c0 1.479-1.207 2.683-2.69 2.683h-21.637c-1.483 0-2.69-1.203-2.69-2.683v-21.579c0-1.479 1.207-2.683 2.69-2.683h21.637c1.483 0 2.69 1.203 2.69 2.683v21.579z"></path><path d="M24.478 22.778c-1.095 0-2.181 0-3.285 0 0-0.053 0-0.102 0-0.151 0-1.779-0-3.557 0-5.336 0-0.379-0.028-0.752-0.123-1.122-0.393-1.523-2.089-1.434-2.763-0.712-0.339 0.363-0.561 0.773-0.57 1.279-0.002 0.121-0.009 0.241-0.009 0.362-0.001 1.841-0 3.682-0 5.523 0 0.050 0 0.099 0 0.157-1.099 0-2.186 0-3.279 0 0-3.395 0-6.786 0-10.183 1.092 0 2.178 0 3.277 0 0 0.46 0 0.913 0 1.366 0.009 0.004 0.017 0.008 0.026 0.011 0.023-0.032 0.047-0.063 0.070-0.095 0.329-0.456 0.706-0.861 1.208-1.134 0.56-0.306 1.165-0.408 1.795-0.39 0.682 0.020 1.329 0.173 1.912 0.54 0.747 0.47 1.203 1.159 1.47 1.984 0.208 0.643 0.276 1.307 0.277 1.979 0.002 1.934 0.001 3.869 0 5.803 0 0.038-0.003 0.076-0.006 0.119z"></path><path d="M12.445 22.783c-1.091 0-2.171 0-3.261 0 0-3.396 0-6.791 0-10.192 1.084 0 2.168 0 3.261 0 0 3.393 0 6.788 0 10.192z"></path><path d="M10.954 7.522c1.027-0.001 1.754 0.729 1.757 1.766 0.003 1.026-0.734 1.752-1.781 1.752-1.022 0.001-1.75-0.73-1.752-1.756s0.737-1.76 1.776-1.762z"></path></symbol>
<symbol id="menu" viewBox="0 0 53 32"><path d="M0 0h52.8v6.14h-52.8v-6.14z"></path><path d="M0 12.278h52.8v6.14h-52.8v-6.14z"></path><path d="M0 24.559h52.8v6.14h-52.8v-6.14z"></path></symbol>
<symbol id="ps" viewBox="0 0 32 32"><path fill="#000" style="fill: var(--color1, #000)" d="M1.335 1.359h29.363v29.071h-29.363v-29.071z"></path><path fill="#31c5f0" style="fill: var(--color9, #31c5f0)" d="M1.335 1.359h29.363v29.071h-29.363v-29.071zM0 31.789h32.026v-31.789h-32.026v31.789zM21.597 13.046c-1.053 0-1.412 0.542-1.412 0.993 0 0.49 0.237 0.83 1.656 1.574 2.092 1.032 2.747 2.025 2.747 3.476 0 2.175-1.63 3.345-3.832 3.345-1.162 0-2.163-0.242-2.734-0.581-0.096-0.039-0.109-0.111-0.109-0.216v-2.006c0-0.137 0.064-0.176 0.16-0.111 0.841 0.555 1.803 0.804 2.683 0.804 1.053 0 1.495-0.451 1.495-1.058 0-0.49-0.308-0.921-1.656-1.633-1.893-0.921-2.683-1.855-2.683-3.423 0-1.751 1.348-3.208 3.684-3.208 1.149 0 1.951 0.176 2.388 0.379 0.109 0.065 0.135 0.176 0.135 0.274v1.862c0 0.111-0.064 0.176-0.199 0.137-0.59-0.379-1.457-0.608-2.323-0.608zM10.121 14.66c0.308 0.026 0.546 0.026 1.078 0.026 1.56 0 3.029-0.555 3.029-2.718 0-1.725-1.053-2.594-2.83-2.594-0.533 0-1.040 0.026-1.284 0.039l0.006 5.246zM7.74 7.447c0-0.098 0.186-0.163 0.295-0.163 0.854-0.039 2.124-0.065 3.44-0.065 3.697 0 5.141 2.064 5.141 4.697 0 3.449-2.458 4.932-5.475 4.932-0.507 0-0.68-0.026-1.040-0.026v5.213c0 0.111-0.039 0.163-0.16 0.163h-2.041c-0.109 0-0.16-0.039-0.16-0.163v-14.588z"></path></symbol>
<symbol id="star" viewBox="0 0 35 32"><path d="M15.669 1.375c0.48-1.472 2.563-1.472 3.043 0l2.802 8.599c0.215 0.659 0.829 1.104 1.521 1.104h9.057c1.551 0 2.195 1.986 0.939 2.896l-7.32 5.303c-0.562 0.408-0.798 1.131-0.583 1.791l2.798 8.587c0.48 1.473-1.205 2.7-2.46 1.791l-7.337-5.316c-0.56-0.406-1.317-0.406-1.877 0l-7.337 5.316c-1.255 0.909-2.94-0.318-2.46-1.791l2.798-8.587c0.215-0.66-0.020-1.384-0.583-1.791l-7.32-5.303c-1.256-0.91-0.612-2.896 0.939-2.896h9.057c0.693 0 1.307-0.446 1.521-1.104l2.802-8.599z"></path></symbol>
<symbol id="gh" viewBox="0 0 64 64"><path d="M32 6C17.641 6 6 17.641 6 32c0 12.277 8.512 22.56 19.955 25.286-.592-.141-1.179-.299-1.755-.479V50.85c0 0-.975.325-2.275.325-3.637 0-5.148-3.245-5.525-4.875-.229-.993-.827-1.934-1.469-2.509-.767-.684-1.126-.686-1.131-.92-.01-.491.658-.471.975-.471 1.625 0 2.857 1.729 3.429 2.623 1.417 2.207 2.938 2.577 3.721 2.577.975 0 1.817-.146 2.397-.426.268-1.888 1.108-3.57 2.478-4.774-6.097-1.219-10.4-4.716-10.4-10.4 0-2.928 1.175-5.619 3.133-7.792C19.333 23.641 19 22.494 19 20.625c0-1.235.086-2.751.65-4.225 0 0 3.708.026 7.205 3.338C28.469 19.268 30.196 19 32 19s3.531.268 5.145.738c3.497-3.312 7.205-3.338 7.205-3.338.567 1.474.65 2.99.65 4.225 0 2.015-.268 3.19-.432 3.697C46.466 26.475 47.6 29.124 47.6 32c0 5.684-4.303 9.181-10.4 10.4 1.628 1.43 2.6 3.513 2.6 5.85v8.557c-.576.181-1.162.338-1.755.479C49.488 54.56 58 44.277 58 32 58 17.641 46.359 6 32 6zM33.813 57.93C33.214 57.972 32.61 58 32 58 32.61 58 33.213 57.971 33.813 57.93zM37.786 57.346c-1.164.265-2.357.451-3.575.554C35.429 57.797 36.622 57.61 37.786 57.346zM32 58c-.61 0-1.214-.028-1.813-.07C30.787 57.971 31.39 58 32 58zM29.788 57.9c-1.217-.103-2.411-.289-3.574-.554C27.378 57.61 28.571 57.797 29.788 57.9z"></path></symbol>
<symbol id="fb" viewBox="0 0 50 50"><path d="M 9 4 C 6.2504839 4 4 6.2504839 4 9 L 4 41 C 4 43.749516 6.2504839 46 9 46 L 25.832031 46 A 1.0001 1.0001 0 0 0 26.158203 46 L 31.832031 46 A 1.0001 1.0001 0 0 0 32.158203 46 L 41 46 C 43.749516 46 46 43.749516 46 41 L 46 9 C 46 6.2504839 43.749516 4 41 4 L 9 4 z M 9 6 L 41 6 C 42.668484 6 44 7.3315161 44 9 L 44 41 C 44 42.668484 42.668484 44 41 44 L 33 44 L 33 30 L 36.820312 30 L 38.220703 23 L 33 23 L 33 21 C 33 20.442508 33.05305 20.398929 33.240234 20.277344 C 33.427419 20.155758 34.005822 20 35 20 L 38 20 L 38 14.369141 L 37.429688 14.097656 C 37.429688 14.097656 35.132647 13 32 13 C 29.75 13 27.901588 13.896453 26.71875 15.375 C 25.535912 16.853547 25 18.833333 25 21 L 25 23 L 22 23 L 22 30 L 25 30 L 25 44 L 9 44 C 7.3315161 44 6 42.668484 6 41 L 6 9 C 6 7.3315161 7.3315161 6 9 6 z M 32 15 C 34.079062 15 35.38736 15.458455 36 15.701172 L 36 18 L 35 18 C 33.849178 18 32.926956 18.0952 32.150391 18.599609 C 31.373826 19.104024 31 20.061492 31 21 L 31 25 L 35.779297 25 L 35.179688 28 L 31 28 L 31 44 L 27 44 L 27 28 L 24 28 L 24 25 L 27 25 L 27 21 C 27 19.166667 27.464088 17.646453 28.28125 16.625 C 29.098412 15.603547 30.25 15 32 15 z"></path></symbol>
<symbol id="li" viewBox="0 0 50 50"><path d="M 9 4 C 6.2504839 4 4 6.2504839 4 9 L 4 41 C 4 43.749516 6.2504839 46 9 46 L 41 46 C 43.749516 46 46 43.749516 46 41 L 46 9 C 46 6.2504839 43.749516 4 41 4 L 9 4 z M 9 6 L 41 6 C 42.668484 6 44 7.3315161 44 9 L 44 41 C 44 42.668484 42.668484 44 41 44 L 9 44 C 7.3315161 44 6 42.668484 6 41 L 6 9 C 6 7.3315161 7.3315161 6 9 6 z M 14 11.011719 C 12.904779 11.011719 11.919219 11.339079 11.189453 11.953125 C 10.459687 12.567171 10.011719 13.484511 10.011719 14.466797 C 10.011719 16.333977 11.631285 17.789609 13.691406 17.933594 A 0.98809878 0.98809878 0 0 0 13.695312 17.935547 A 0.98809878 0.98809878 0 0 0 14 17.988281 C 16.27301 17.988281 17.988281 16.396083 17.988281 14.466797 A 0.98809878 0.98809878 0 0 0 17.986328 14.414062 C 17.884577 12.513831 16.190443 11.011719 14 11.011719 z M 14 12.988281 C 15.392231 12.988281 15.94197 13.610038 16.001953 14.492188 C 15.989803 15.348434 15.460091 16.011719 14 16.011719 C 12.614594 16.011719 11.988281 15.302225 11.988281 14.466797 C 11.988281 14.049083 12.140703 13.734298 12.460938 13.464844 C 12.78117 13.19539 13.295221 12.988281 14 12.988281 z M 11 19 A 1.0001 1.0001 0 0 0 10 20 L 10 39 A 1.0001 1.0001 0 0 0 11 40 L 17 40 A 1.0001 1.0001 0 0 0 18 39 L 18 33.134766 L 18 20 A 1.0001 1.0001 0 0 0 17 19 L 11 19 z M 20 19 A 1.0001 1.0001 0 0 0 19 20 L 19 39 A 1.0001 1.0001 0 0 0 20 40 L 26 40 A 1.0001 1.0001 0 0 0 27 39 L 27 29 C 27 28.170333 27.226394 27.345035 27.625 26.804688 C 28.023606 26.264339 28.526466 25.940057 29.482422 25.957031 C 30.468166 25.973981 30.989999 26.311669 31.384766 26.841797 C 31.779532 27.371924 32 28.166667 32 29 L 32 39 A 1.0001 1.0001 0 0 0 33 40 L 39 40 A 1.0001 1.0001 0 0 0 40 39 L 40 28.261719 C 40 25.300181 39.122788 22.95433 37.619141 21.367188 C 36.115493 19.780044 34.024172 19 31.8125 19 C 29.710483 19 28.110853 19.704889 27 20.423828 L 27 20 A 1.0001 1.0001 0 0 0 26 19 L 20 19 z M 12 21 L 16 21 L 16 33.134766 L 16 38 L 12 38 L 12 21 z M 21 21 L 25 21 L 25 22.560547 A 1.0001 1.0001 0 0 0 26.798828 23.162109 C 26.798828 23.162109 28.369194 21 31.8125 21 C 33.565828 21 35.069366 21.582581 36.167969 22.742188 C 37.266572 23.901794 38 25.688257 38 28.261719 L 38 38 L 34 38 L 34 29 C 34 27.833333 33.720468 26.627107 32.990234 25.646484 C 32.260001 24.665862 31.031834 23.983076 29.517578 23.957031 C 27.995534 23.930001 26.747519 24.626988 26.015625 25.619141 C 25.283731 26.611293 25 27.829667 25 29 L 25 38 L 21 38 L 21 21 z"></path></symbol>
<symbol id="html" viewBox="0 0 48 48"><path fill="#E65100" d="M41,5H7l3,34l14,4l14-4L41,5L41,5z"/><path fill="#FF6D00" d="M24 8L24 39.9 35.2 36.7 37.7 8z"/><path fill="#FFF" d="M24,25v-4h8.6l-0.7,11.5L24,35.1v-4.2l4.1-1.4l0.3-4.5H24z M32.9,17l0.3-4H24v4H32.9z"/><path fill="#EEE" d="M24,30.9v4.2l-7.9-2.6L15.7,27h4l0.2,2.5L24,30.9z M19.1,17H24v-4h-9.1l0.7,12H24v-4h-4.6L19.1,17z"></path></symbol>
<symbol id="css" viewBox="0 0 48 48"><path fill="#0277BD" d="M41,5H7l3,34l14,4l14-4L41,5L41,5z"/><path fill="#039BE5" d="M24 8L24 39.9 35.2 36.7 37.7 8z"/><path fill="#FFF" d="M33.1 13L24 13 24 17 28.9 17 28.6 21 24 21 24 25 28.4 25 28.1 29.5 24 30.9 24 35.1 31.9 32.5 32.6 21 32.6 21z"/><path fill="#EEE" d="M24,13v4h-8.9l-0.3-4H24z M19.4,21l0.2,4H24v-4H19.4z M19.8,27h-4l0.3,5.5l7.9,2.6v-4.2l-4.1-1.4L19.8,27z"></path></symbol>
<symbol id="js" viewBox="0 0 48 48"><path fill="#ffd600" d="M6,42V6h36v36H6z"/><path fill="#000001" d="M29.538 32.947c.692 1.124 1.444 2.201 3.037 2.201 1.338 0 2.04-.665 2.04-1.585 0-1.101-.726-1.492-2.198-2.133l-.807-.344c-2.329-.988-3.878-2.226-3.878-4.841 0-2.41 1.845-4.244 4.728-4.244 2.053 0 3.528.711 4.592 2.573l-2.514 1.607c-.553-.988-1.151-1.377-2.078-1.377-.946 0-1.545.597-1.545 1.377 0 .964.6 1.354 1.985 1.951l.807.344C36.452 29.645 38 30.839 38 33.523 38 36.415 35.716 38 32.65 38c-2.999 0-4.702-1.505-5.65-3.368L29.538 32.947zM17.952 33.029c.506.906 1.275 1.603 2.381 1.603 1.058 0 1.667-.418 1.667-2.043V22h3.333v11.101c0 3.367-1.953 4.899-4.805 4.899-2.577 0-4.437-1.746-5.195-3.368L17.952 33.029z"></path></symbol>
<symbol id="react" viewBox="0 0 48 48"><path fill="#80deea" d="M24,34C11.1,34,1,29.6,1,24c0-5.6,10.1-10,23-10c12.9,0,23,4.4,23,10C47,29.6,36.9,34,24,34z M24,16	c-12.6,0-21,4.1-21,8c0,3.9,8.4,8,21,8s21-4.1,21-8C45,20.1,36.6,16,24,16z"/><path fill="#80deea" d="M15.1,44.6c-1,0-1.8-0.2-2.6-0.7C7.6,41.1,8.9,30.2,15.3,19l0,0c3-5.2,6.7-9.6,10.3-12.4c3.9-3,7.4-3.9,9.8-2.5	c2.5,1.4,3.4,4.9,2.8,9.8c-0.6,4.6-2.6,10-5.6,15.2c-3,5.2-6.7,9.6-10.3,12.4C19.7,43.5,17.2,44.6,15.1,44.6z M32.9,5.4	c-1.6,0-3.7,0.9-6,2.7c-3.4,2.7-6.9,6.9-9.8,11.9l0,0c-6.3,10.9-6.9,20.3-3.6,22.2c1.7,1,4.5,0.1,7.6-2.3c3.4-2.7,6.9-6.9,9.8-11.9	c2.9-5,4.8-10.1,5.4-14.4c0.5-4-0.1-6.8-1.8-7.8C34,5.6,33.5,5.4,32.9,5.4z"/><path fill="#80deea" d="M33,44.6c-5,0-12.2-6.1-17.6-15.6C8.9,17.8,7.6,6.9,12.5,4.1l0,0C17.4,1.3,26.2,7.8,32.7,19	c3,5.2,5,10.6,5.6,15.2c0.7,4.9-0.3,8.3-2.8,9.8C34.7,44.4,33.9,44.6,33,44.6z M13.5,5.8c-3.3,1.9-2.7,11.3,3.6,22.2	c6.3,10.9,14.1,16.1,17.4,14.2c1.7-1,2.3-3.8,1.8-7.8c-0.6-4.3-2.5-9.4-5.4-14.4C24.6,9.1,16.8,3.9,13.5,5.8L13.5,5.8z"/><circle cx="24" cy="24" r="4" fill="#80deea"/></symbol>
<symbol id="node" viewBox="0 0 48 48"><path fill="#388e3c" d="M17.204 19.122l-4.907 2.715C12.113 21.938 12 22.126 12 22.329v5.433c0 .203.113.39.297.492l4.908 2.717c.183.101.41.101.593 0l4.907-2.717C22.887 28.152 23 27.965 23 27.762v-5.433c0-.203-.113-.39-.297-.492l-4.906-2.715c-.092-.051-.195-.076-.297-.076-.103 0-.205.025-.297.076M42.451 24.013l-.818.452c-.031.017-.049.048-.049.082v.906c0 .034.019.065.049.082l.818.453c.031.017.068.017.099 0l.818-.453c.03-.017.049-.048.049-.082v-.906c0-.034-.019-.065-.05-.082l-.818-.452C42.534 24.004 42.517 24 42.5 24S42.466 24.004 42.451 24.013"/><path fill="#37474f" d="M35.751,13.364l-2.389-1.333c-0.075-0.042-0.167-0.041-0.241,0.003 c-0.074,0.044-0.12,0.123-0.12,0.209L33,20.295l-2.203-1.219C30.705,19.025,30.602,19,30.5,19c-0.102,0-0.205,0.025-0.297,0.076 h0.001l-4.907,2.715C25.113,21.892,25,22.08,25,22.282v5.433c0,0.203,0.113,0.39,0.297,0.492l4.908,2.717 c0.183,0.101,0.41,0.101,0.593,0l4.907-2.717C35.887,28.106,36,27.918,36,27.715V13.788C36,13.612,35.904,13.45,35.751,13.364z M32.866,26.458l-2.23,1.235c-0.083,0.046-0.186,0.046-0.269,0l-2.231-1.235C28.051,26.412,28,26.326,28,26.234v-2.47 c0-0.092,0.051-0.177,0.135-0.224l2.231-1.234h-0.001c0.042-0.023,0.088-0.034,0.135-0.034c0.047,0,0.093,0.012,0.135,0.034 l2.23,1.234C32.949,23.587,33,23.673,33,23.765v2.47C33,26.326,32.949,26.412,32.866,26.458z"/><path fill="#2e7d32" d="M17.204,19.122L12,27.762c0,0.203,0.113,0.39,0.297,0.492l4.908,2.717 c0.183,0.101,0.41,0.101,0.593,0L23,22.329c0-0.203-0.113-0.39-0.297-0.492l-4.906-2.715c-0.092-0.051-0.195-0.076-0.297-0.076 c-0.103,0-0.205,0.025-0.297,0.076"/><path fill="#4caf50" d="M17.204,19.122l-4.907,2.715C12.113,21.938,12,22.126,12,22.329l5.204,8.642 c0.183,0.101,0.41,0.101,0.593,0l4.907-2.717C22.887,28.152,23,27.965,23,27.762l-5.203-8.64c-0.092-0.051-0.195-0.076-0.297-0.076 c-0.103,0-0.205,0.025-0.297,0.076"/><path fill="#37474f" d="M47.703 21.791l-4.906-2.715C42.705 19.025 42.602 19 42.5 19c-.102 0-.205.025-.297.076h.001l-4.907 2.715C37.114 21.892 37 22.084 37 22.294v5.411c0 .209.114.402.297.503l4.908 2.717c.184.102.409.102.593 0l2.263-1.253c.207-.115.206-.412-.002-.526l-4.924-2.687C40.052 26.412 40 26.325 40 26.231v-2.466c0-.092.05-.177.13-.221l2.235-1.236h-.001c.042-.023.088-.034.135-.034.047 0 .093.012.135.034l2.235 1.237c.08.044.13.129.13.221v2.012c0 .086.046.166.121.209.075.042.167.042.242-.001l2.398-1.393c.148-.086.24-.245.24-.417v-1.88C48 22.085 47.886 21.892 47.703 21.791zM10.703 21.791l-4.906-2.715C5.705 19.025 5.602 19 5.5 19c-.102 0-.205.025-.297.076h.001l-4.907 2.715C.114 21.892 0 22.084 0 22.294v7.465c0 .086.046.166.121.209.075.042.167.042.242-.001l2.398-1.393C2.909 28.488 3 28.329 3 28.157v-4.393c0-.092.05-.177.13-.221l2.235-1.236H5.365c.042-.023.088-.034.135-.034.047 0 .093.012.135.034l2.235 1.237C7.95 23.588 8 23.673 8 23.765v4.393c0 .172.091.331.24.417l2.398 1.393c.075.043.167.043.242.001C10.954 29.925 11 29.845 11 29.759v-7.464C11 22.085 10.886 21.892 10.703 21.791z"/></symbol>
<symbol id="arrow" viewBox="0 0 24 24"><path  fill="none" d="M0 0h24v24H0V0z"></path><path d="M16.62 2.99c-.49-.49-1.28-.49-1.77 0L6.54 11.3c-.39.39-.39 1.02 0 1.41l8.31 8.31c.49.49 1.28.49 1.77 0s.49-1.28 0-1.77L9.38 12l7.25-7.25c.48-.48.48-1.28-.01-1.76z" class="color090909 svgShape"></path></symbol></defs>
<symbol id="git" viewBox="0 0 128 128"><path fill="#31251C" d="M76.397 55.676c-2.737 0-4.775 1.344-4.775 4.579 0 2.437 1.343 4.129 4.628 4.129 2.784 0 4.676-1.641 4.676-4.23 0-2.934-1.693-4.478-4.529-4.478zm-5.471 22.84c-.648.795-1.294 1.64-1.294 2.637 0 1.989 2.536 2.587 6.021 2.587 2.885 0 6.816-.202 6.816-2.885 0-1.595-1.892-1.693-4.281-1.843l-7.262-.496zm14.725-22.69c.895 1.145 1.842 2.737 1.842 5.026 0 5.522-4.329 8.756-10.597 8.756-1.594 0-3.037-.198-3.932-.447l-1.642 2.637 4.875.297c8.608.549 13.682.798 13.682 7.413 0 5.723-5.024 8.955-13.682 8.955-9.006 0-12.438-2.289-12.438-6.218 0-2.24.996-3.431 2.737-5.076-1.643-.694-2.189-1.937-2.189-3.281 0-1.095.547-2.09 1.443-3.036.896-.944 1.891-1.891 3.084-2.985-2.438-1.194-4.278-3.781-4.278-7.464 0-5.721 3.781-9.65 11.393-9.65 2.14 0 3.435.197 4.578.498h9.703v4.228l-4.579.347zM98.983 46.786c-2.837 0-4.479-1.643-4.479-4.48 0-2.833 1.642-4.377 4.479-4.377 2.886 0 4.527 1.543 4.527 4.377.001 2.837-1.641 4.48-4.527 4.48zm-6.42 29.9v-3.929l2.539-.348c.696-.1.795-.249.795-.997v-14.627c0-.546-.148-.896-.647-1.044l-2.687-.946.547-4.028h10.301v20.646c0 .798.048.896.796.997l2.538.348v3.929h-14.182v-.001zM126.42 74.756c-2.141 1.043-5.274 1.99-8.112 1.99-5.92 0-8.158-2.386-8.158-8.011v-13.035c0-.297 0-.497-.399-.497h-3.482v-4.428c4.38-.499 6.12-2.688 6.667-8.111h4.728v7.067c0 .347 0 .498.398.498h7.015v4.975h-7.413v11.89c0 2.935.697 4.079 3.383 4.079 1.395 0 2.836-.347 4.03-.795l1.343 4.378z"/><path fill="#F34F29" d="M52.7 61.7l-22.749-22.748c-1.309-1.31-3.434-1.31-4.744 0l-4.724 4.724 5.991 5.992c1.394-.47 2.99-.155 4.1.956 1.116 1.117 1.429 2.727.947 4.125l5.775 5.775c1.396-.481 3.009-.17 4.125.947 1.56 1.559 1.56 4.086 0 5.646-1.561 1.56-4.087 1.56-5.647 0-1.173-1.174-1.463-2.897-.869-4.342l-5.386-5.386-.001 14.174c.381.188.739.438 1.056.754 1.56 1.559 1.56 4.085 0 5.647-1.56 1.559-4.088 1.559-5.646 0-1.56-1.562-1.56-4.088 0-5.647.386-.385.831-.676 1.307-.871v-14.305c-.476-.194-.921-.484-1.307-.871-1.182-1.181-1.466-2.914-.86-4.365l-5.906-5.908-15.599 15.598c-1.311 1.311-1.311 3.436 0 4.747l22.749 22.748c1.31 1.31 3.434 1.31 4.746 0l22.642-22.644c1.311-1.31 1.311-3.436 0-4.746z"/><path fill="none" d="M1.58 37.928h124.84v52.143h-124.84z"/></symbol>
<symbol id="gulp" viewBox="0 0 128 128"><path fill-rule="evenodd" clip-rule="evenodd" fill="#EB4A4B" d="M36.965 35.459c.877 9.232 1.747 18.412 2.637 27.798 1.451-2.495 2.501-4.888 4.085-6.848 1.475-1.826 3.334-3.511 5.357-4.678 2.641-1.524 6.104-.089 6.96 2.614.23.725-.319 1.697-.511 2.556-.646-.341-1.479-.529-1.901-1.051-1.793-2.217-2.873-2.479-4.856-.563-3.699 3.576-5.779 8.056-6.573 13.091-.153.974.456 2.067.713 3.105 1.011-.348 2.185-.476 3.002-1.084 2.656-1.977 4.302-4.666 5.21-7.88.197-.696 1.265-1.145 1.933-1.708.32.658 1.05 1.433.897 1.954-1.407 4.84-2.934 9.649-4.536 14.429-.162.484-1.051.725-1.604 1.079-.223-.636-.692-1.302-.617-1.901.168-1.358.605-2.683.91-3.927l-7.24 3.333c.405 4.622.825 9.807 1.323 14.985.382 3.954 1.029 4.978 4.923 5.728 4.544.875 9.173 1.434 13.792 1.774 6.825.503 13.59-.119 20.23-1.904 2.472-.664 3.458-2.29 3.635-4.717.162-2.235.524-4.456.775-6.685.493-4.391.972-8.783 1.476-13.358-1.667 1.056-2.978 2.238-4.511 2.739-1.116.365-2.524-.169-3.803-.303.245-1.174.23-2.497.796-3.487.922-1.618 2.224-3.021 3.364-4.515l-.491-.591c-.817.483-1.832.8-2.413 1.485-1.182 1.394-2.339 2.886-3.13 4.52-1.324 2.735-2.333 5.622-3.518 8.426-.515 1.216-.959 3.076-2.684 2.366-1.845-.761-.547-2.386-.114-3.542.689-1.844 1.599-3.606 2.215-4.962-1.746.208-3.516.459-5.294.614-.752.064-1.646-.348-2.261-.07-2.045.924-3.341.553-3.766-1.711-.947.615-1.749 1.448-2.694 1.672-1.147.273-2.703.452-3.543-.121-.673-.459-.918-2.184-.688-3.196.457-2.012 1.311-3.946 2.122-5.859.502-1.185 1.007-3.077 2.701-2.253 1.674.813.154 2.185-.232 3.286-.599 1.702-1.209 3.401-1.813 5.101l.96.58c.914-.794 2.053-1.441 2.693-2.415 1.048-1.592 1.681-3.452 2.673-5.086.411-.677 1.296-1.065 1.967-1.584.136.862.462 1.748.354 2.58-.107.841-.698 1.61-.981 2.442-.425 1.246-.768 2.52-1.2 3.969 2.043.078 2.918-.782 3.495-2.299 1.826-4.793 3.672-9.581 5.679-14.3.343-.808 1.509-1.264 2.296-1.884.091.974.525 2.078.216 2.899-1.645 4.349-3.492 8.62-5.228 12.935-.293.727-.387 1.534-.572 2.304 3.059-1.375 5.612-2.895 6.544-6.146.228-.79 1.162-1.377 1.771-2.058l1.416 1.5c.43-.362.824-.774 1.291-1.075 1.47-.947 3.053-1.782 4.603-.315 1.604 1.517.39 2.995-.448 4.307-.912 1.431-2.029 2.73-3.057 4.086 2.312-1.49 5.469-2.158 5.889-5.378 1.024-7.865 1.924-15.746 2.837-23.625.271-2.332.416-4.679.627-7.109-18.21 4.409-36.029 4.436-54.088-.069zM44.781 96.828c.877 2.317 2.209 4.593 2.558 7.011.737 5.147.924 10.372 1.446 15.554.076.755.565 1.792 1.175 2.124 8.98 4.88 18.047 5.726 27.209.389 1.367-.796 1.62-1.847 1.797-3.325.857-7.181-1.051-14.798 3.54-21.56-12.856 3.189-25.403 3.288-37.725-.193zM75.772 36.748c4.362-.421 8.671-1.445 12.985-2.291.813-.159 1.535-.778 2.299-1.185-1.007-.885-1.878-1.311-2.788-1.418-4.53-.535-9.076-.947-13.603-1.508-.684-.085-1.905-.929-1.854-1.083 1.321-3.98 1.256-8.485 4.254-11.839 3.789-4.24 7.617-8.443 11.416-12.648-2.826-3.04-2.864-3.044-5.425-.383-1.448 1.504-2.771 3.15-4.342 4.512-5.813 5.038-9.896 11.005-10.692 18.872-.183 1.805-1.174 2.457-3.069 2.485-6.256.091-12.519.263-18.761.674-3.093.203-6.148.997-9.221 1.523l-.028 1.149c1.923.593 3.809 1.372 5.773 1.749 10.944 2.098 21.991 2.458 33.056 1.391zm-3.496-2.748c-2.477 2-4.524 2-6.501 0h6.501z"/></symbol>
<symbol id="nj" viewBox="0 0 32 32"><title>file_type_nunjucks</title><path d="M2,2H30V30H2V2M5.609,5.434q0,10.126,0,20.253H9.088q0-4.407,0-8.815,1.268,4.408,2.536,8.815,1.737,0,3.474,0,0-10.126,0-20.253c-1.168,0-2.336,0-3.5,0,0,2.759,0,5.518,0,8.278Q10.332,9.572,9.059,5.434q-1.725,0-3.45,0m17.255,4.8q0,5.97,0,11.94H20.336c0-1.225,0-2.45,0-3.675-1.17.274-2.342.542-3.513.814q0,1.844,0,3.688a4.19,4.19,0,0,0,.077,1.1,2.187,2.187,0,0,0,.863,1.219,2.077,2.077,0,0,0,1.193.371q2.381,0,4.763,0a4.058,4.058,0,0,0,1.08-.08,2.216,2.216,0,0,0,1.247-.931,2.136,2.136,0,0,0,.336-1.209q0-6.617,0-13.234Z" style="fill:#1c4913"/><path d="M5.609,5.434q1.725,0,3.45,0,1.271,4.139,2.538,8.279c-.007-2.759,0-5.518,0-8.278,1.168,0,2.336,0,3.5,0q0,10.126,0,20.253-1.737,0-3.474,0-1.27-4.407-2.536-8.815,0,4.408,0,8.815H5.609Q5.609,15.561,5.609,5.434Z" style="fill:#fefffc"/><path d="M22.865,10.233h3.514q0,6.617,0,13.234a2.136,2.136,0,0,1-.336,1.209,2.216,2.216,0,0,1-1.247.931,4.058,4.058,0,0,1-1.08.08q-2.382,0-4.763,0a2.077,2.077,0,0,1-1.193-.371A2.187,2.187,0,0,1,16.9,24.1a4.19,4.19,0,0,1-.077-1.1q0-1.844,0-3.688c1.171-.273,2.343-.541,3.513-.814,0,1.225,0,2.45,0,3.675h2.529Q22.865,16.2,22.865,10.233Z" style="fill:#fefffc"/></symbol>
<symbol id="sass" viewBox="0 0 32 32"><title>file_type_sass</title><path d="M26.11,17.572a5.8,5.8,0,0,0-2.537.588,5.345,5.345,0,0,1-.568-1.314,3.53,3.53,0,0,1-.051-1.1,9.811,9.811,0,0,1,.332-1.192c-.005-.051-.061-.292-.624-.3s-1.048.107-1.1.256a6.171,6.171,0,0,0-.235.834,19.686,19.686,0,0,1-1.713,3.294,3.186,3.186,0,0,1-.44-2.066,9.811,9.811,0,0,1,.332-1.192c-.005-.051-.061-.292-.624-.3s-1.048.107-1.1.256-.118.5-.235.834-1.483,3.386-1.841,4.173c-.184.4-.343.726-.455.946h0a.233.233,0,0,1-.02.041c-.1.189-.153.292-.153.292v.005c-.077.138-.159.266-.2.266a1.711,1.711,0,0,1,.01-.869c.2-1.059.69-2.705.685-2.762,0-.031.092-.317-.317-.465a.508.508,0,0,0-.578.1c-.036,0-.061.087-.061.087s.445-1.851-.849-1.851a3.855,3.855,0,0,0-2.475,1.683c-.348.189-1.089.593-1.882,1.028-.3.169-.614.338-.905.5-.02-.02-.041-.046-.061-.066C6.87,17.6,3.975,16.416,4.1,14.171c.046-.818.327-2.966,5.559-5.575,4.306-2.122,7.733-1.534,8.326-.23.849,1.862-1.836,5.319-6.285,5.82a3.351,3.351,0,0,1-2.813-.711c-.235-.256-.271-.271-.358-.22-.143.077-.051.307,0,.44a2.626,2.626,0,0,0,1.606,1.263,8.55,8.55,0,0,0,5.217-.517c2.7-1.043,4.8-3.943,4.184-6.372-.619-2.465-4.71-3.278-8.582-1.9A19.5,19.5,0,0,0,4.359,9.952c-2.133,1.995-2.47,3.728-2.332,4.455.5,2.578,4.051,4.255,5.472,5.5-.072.041-.138.077-.194.107-.711.353-3.421,1.77-4.1,3.268-.767,1.7.123,2.915.711,3.079a4.374,4.374,0,0,0,4.71-1.908A4.725,4.725,0,0,0,9.049,20.1a.107.107,0,0,0-.02-.031l.557-.327c.363-.215.721-.414,1.028-.578a6.74,6.74,0,0,0-.363,1.862,3.886,3.886,0,0,0,.834,2.7.921.921,0,0,0,.675.22c.6,0,.875-.5,1.176-1.094.368-.726.7-1.57.7-1.57s-.414,2.281.711,2.281c.409,0,.823-.532,1.008-.8v.005s.01-.015.031-.051l.066-.107v-.01c.164-.286.532-.936,1.079-2.015.706-1.391,1.386-3.13,1.386-3.13a8.888,8.888,0,0,0,.271,1.13,10.643,10.643,0,0,0,.583,1.309c-.164.23-.266.358-.266.358l.005.005c-.133.174-.276.363-.435.547a16.3,16.3,0,0,0-1.314,1.647.447.447,0,0,0,.123.6,1.116,1.116,0,0,0,.685.113,3.147,3.147,0,0,0,1.028-.235,3.45,3.45,0,0,0,.885-.465,1.98,1.98,0,0,0,.849-1.744,3.521,3.521,0,0,0-.322-1.233c.051-.072.1-.143.148-.215a23.428,23.428,0,0,0,1.534-2.649,8.888,8.888,0,0,0,.271,1.13,7.57,7.57,0,0,0,.5,1.125A4.861,4.861,0,0,0,20.965,20.8c-.322.931-.072,1.35.4,1.447a1.425,1.425,0,0,0,.747-.153,3.4,3.4,0,0,0,.946-.486,2.126,2.126,0,0,0,1.043-1.729,3.268,3.268,0,0,0-.235-1.023,5.356,5.356,0,0,1,2.716-.312c2.434.286,2.915,1.805,2.823,2.445a1.618,1.618,0,0,1-.772,1.094c-.169.107-.225.143-.21.22.02.113.1.107.245.087A1.9,1.9,0,0,0,30,20.7c.077-1.5-1.355-3.145-3.887-3.13ZM7.33,23.9c-.808.88-1.933,1.212-2.419.931-.522-.3-.317-1.6.675-2.532a12.884,12.884,0,0,1,1.9-1.417c.118-.072.292-.174.5-.3l.056-.031h0l.123-.077A3.493,3.493,0,0,1,7.33,23.9Zm5.881-4c-.281.685-.869,2.44-1.227,2.342-.307-.082-.5-1.412-.061-2.726a6.193,6.193,0,0,1,.956-1.754c.44-.491.926-.655,1.043-.455a9.062,9.062,0,0,1-.711,2.593Zm4.853,2.322c-.118.061-.23.1-.281.072-.036-.02.051-.1.051-.1s.609-.655.849-.951c.138-.174.3-.378.476-.609V20.7c0,.782-.757,1.309-1.094,1.524Zm3.744-.854c-.087-.061-.072-.266.22-.905a3.408,3.408,0,0,1,.834-1.074,1.448,1.448,0,0,1,.082.471,1.547,1.547,0,0,1-1.135,1.509Z" style="fill:#cd6799"/></symbol>
<symbol id="tw" viewBox="0 0 64 32"><path fill="#0ff" style="fill: var(--color1, #19e5e6)" d="M9.26 14.137c0.621-2.485 2.174-3.728 4.659-3.728 3.728 0 4.193 2.795 6.057 3.261 1.243 0.311 2.33-0.155 3.261-1.397-0.621 2.485-2.174 3.727-4.659 3.727-3.728 0-4.193-2.795-6.057-3.261-1.243-0.311-2.33 0.155-3.261 1.397zM4.601 19.728c0.622-2.485 2.174-3.728 4.659-3.728 3.728 0 4.193 2.795 6.057 3.261 1.243 0.311 2.33-0.155 3.261-1.397-0.621 2.485-2.174 3.728-4.659 3.728-3.728 0-4.193-2.795-6.057-3.261-1.243-0.311-2.33 0.155-3.261 1.397z"></path><path fill="#24292e" style="fill: var(--color2, #24292e)" d="M26.629 18.022h0.852v-3.314h1.219v-0.731h-3.291v0.731h1.22zM30.293 17.649c-0.112 0.127-0.242 0.234-0.387 0.319l-0.007 0.004c-0.145 0.083-0.333 0.125-0.564 0.125-0.002 0-0.004 0-0.007 0-0.132 0-0.259-0.019-0.38-0.054l0.010 0.002c-0.119-0.034-0.224-0.087-0.313-0.158s-0.16-0.163-0.212-0.275-0.080-0.244-0.080-0.4c0-0.204 0.045-0.37 0.137-0.499s0.212-0.23 0.352-0.298l0.006-0.002c0.147-0.072 0.313-0.123 0.496-0.153 0.162-0.028 0.355-0.049 0.551-0.056l0.009-0 0.38-0.017v-0.147c0-0.181-0.050-0.306-0.15-0.373s-0.219-0.101-0.354-0.101c-0.315 0-0.494 0.119-0.539 0.357l-0.725-0.068c0.052-0.309 0.189-0.533 0.408-0.672s0.515-0.207 0.885-0.207c0.227 0 0.42 0.027 0.579 0.082s0.287 0.133 0.383 0.235c0.095 0.102 0.168 0.227 0.209 0.365l0.002 0.006c0.044 0.145 0.065 0.309 0.065 0.491v1.869h-0.75v-0.373zM30.276 16.702l-0.352 0.017c-0.166 0.007-0.301 0.025-0.403 0.051s-0.181 0.060-0.235 0.099-0.092 0.085-0.11 0.139-0.028 0.112-0.028 0.176c0 0.098 0.034 0.176 0.101 0.232s0.163 0.085 0.283 0.085c0.205 0 0.371-0.047 0.499-0.142 0.072-0.053 0.131-0.121 0.176-0.201s0.068-0.182 0.068-0.303v-0.153zM31.687 15.065h0.795v2.957h-0.795zM31.677 13.977h0.816v0.714h-0.816zM33.162 13.977h0.795v4.045h-0.795zM34.312 15.065h0.862l0.414 1.96 0.566-1.932h0.692l0.533 1.938 0.414-1.96h0.828l-0.862 2.957h-0.772l-0.528-1.949-0.533 1.949h-0.754l-0.862-2.957zM38.984 15.065h0.795v2.957h-0.795zM38.973 13.977h0.816v0.714h-0.816zM40.453 15.065h0.772v0.408c0.117-0.173 0.256-0.3 0.416-0.38s0.328-0.119 0.501-0.119c0.337 0 0.587 0.088 0.749 0.263s0.244 0.452 0.244 0.83v1.954h-0.794v-1.846c0-0.213-0.039-0.349-0.119-0.425s-0.185-0.113-0.317-0.113c-0.101 0-0.19 0.016-0.264 0.045s-0.143 0.074-0.207 0.13c-0.053 0.053-0.098 0.116-0.133 0.19-0.034 0.069-0.053 0.15-0.053 0.236 0 0.002 0 0.003 0 0.005v-0 1.779h-0.8v-2.957zM45.829 17.631c-0.193 0.292-0.521 0.482-0.892 0.482-0.009 0-0.019-0-0.028-0l0.001 0c-0.416 0-0.725-0.14-0.931-0.419s-0.306-0.667-0.306-1.161c-0-0.007-0-0.015-0-0.024 0-0.217 0.032-0.426 0.093-0.623l-0.004 0.015c0.059-0.191 0.142-0.355 0.252-0.493 0.107-0.135 0.242-0.243 0.396-0.317l0.007-0.003c0.16-0.075 0.339-0.113 0.539-0.113 0.147 0 0.293 0.027 0.439 0.080s0.283 0.16 0.412 0.306v-1.382h0.795v4.045h-0.771v-0.391zM45.812 16.51c0-0.189-0.016-0.34-0.053-0.453s-0.084-0.205-0.156-0.277c-0.068-0.068-0.143-0.107-0.224-0.133-0.072-0.020-0.155-0.031-0.24-0.031-0 0-0 0-0 0v0c-0.001 0-0.002 0-0.003 0-0.088 0-0.172 0.019-0.248 0.053l0.004-0.002c-0.078 0.034-0.145 0.087-0.204 0.158s-0.105 0.166-0.139 0.283-0.051 0.256-0.051 0.419c0 0.177 0.016 0.325 0.053 0.445s0.076 0.215 0.133 0.289 0.123 0.126 0.198 0.158 0.157 0.053 0.244 0.053c0.189 0 0.344-0.055 0.465-0.164 0.074-0.075 0.132-0.167 0.166-0.27l0.001-0.005c0.035-0.108 0.053-0.246 0.053-0.416v-0.101zM52.021 16.623c-0.019 0.215-0.069 0.414-0.15 0.597-0.083 0.186-0.196 0.344-0.334 0.475l-0.001 0.001c-0.146 0.135-0.32 0.242-0.512 0.311l-0.010 0.003c-0.206 0.075-0.445 0.113-0.717 0.113-0.306 0-0.576-0.051-0.809-0.153s-0.427-0.247-0.582-0.428l-0.002-0.002c-0.157-0.185-0.275-0.409-0.355-0.672s-0.119-0.553-0.119-0.869c0-0.329 0.043-0.623 0.13-0.884s0.212-0.483 0.374-0.668 0.359-0.327 0.59-0.425 0.492-0.147 0.784-0.147c0.257 0 0.482 0.032 0.672 0.096s0.352 0.157 0.483 0.277 0.235 0.267 0.315 0.436c0.078 0.165 0.139 0.357 0.173 0.559l0.002 0.014-0.84 0.108c-0.042-0.238-0.123-0.425-0.24-0.561s-0.308-0.204-0.565-0.204c-0.325 0-0.572 0.122-0.74 0.365s-0.253 0.588-0.253 1.034c0 0.45 0.091 0.8 0.27 1.037 0.156 0.221 0.411 0.363 0.698 0.363 0.009 0 0.017-0 0.026-0l-0.001 0c0.261 0 0.453-0.067 0.576-0.201s0.199-0.325 0.229-0.575zM53.257 16.703c0.019 0.249 0.099 0.43 0.24 0.544s0.35 0.171 0.627 0.171c0.132 0 0.244-0.014 0.335-0.043s0.164-0.066 0.221-0.113c0.054-0.044 0.095-0.1 0.121-0.164l0.001-0.003c0.023-0.060 0.037-0.13 0.037-0.203 0-0.002 0-0.005-0-0.007v0c0-0.107-0.039-0.205-0.118-0.298s-0.225-0.16-0.437-0.201l-0.528-0.096c-0.213-0.037-0.391-0.087-0.55-0.147s-0.292-0.139-0.4-0.235-0.19-0.214-0.246-0.354-0.085-0.306-0.085-0.499c-0-0.006-0-0.014-0-0.021 0-0.178 0.043-0.346 0.119-0.495l-0.003 0.006c0.079-0.149 0.188-0.272 0.32-0.366l0.003-0.002c0.139-0.098 0.304-0.173 0.496-0.224s0.405-0.076 0.636-0.076c0.295 0 0.541 0.034 0.738 0.101s0.356 0.157 0.477 0.269 0.211 0.24 0.269 0.388 0.098 0.3 0.117 0.459l-0.8 0.101c-0.042-0.223-0.122-0.384-0.24-0.482s-0.3-0.147-0.542-0.147c-0.144 0-0.261 0.012-0.355 0.037s-0.167 0.057-0.224 0.096c-0.052 0.034-0.093 0.081-0.119 0.137l-0.001 0.002c-0.022 0.053-0.034 0.108-0.034 0.164 0 0.151 0.043 0.265 0.128 0.34s0.229 0.134 0.434 0.176l0.556 0.108c0.439 0.087 0.761 0.228 0.965 0.421s0.306 0.48 0.306 0.841c0 0.177-0.033 0.341-0.099 0.491-0.071 0.155-0.171 0.286-0.294 0.39l-0.002 0.001c-0.138 0.115-0.301 0.204-0.48 0.258l-0.010 0.003c-0.196 0.062-0.427 0.093-0.692 0.093-0.553 0-0.975-0.117-1.268-0.354s-0.451-0.587-0.48-1.068h0.857zM56.937 16.703c0.019 0.249 0.099 0.43 0.24 0.544s0.352 0.171 0.627 0.171c0.133 0 0.244-0.014 0.336-0.043s0.164-0.066 0.221-0.113c0.054-0.044 0.095-0.1 0.121-0.164l0.001-0.003c0.023-0.060 0.037-0.13 0.037-0.203 0-0.002 0-0.005-0-0.007v0c-0.002-0.115-0.047-0.22-0.119-0.298l0 0c-0.080-0.092-0.225-0.16-0.437-0.201l-0.528-0.096c-0.213-0.037-0.391-0.087-0.55-0.147s-0.292-0.139-0.4-0.235-0.19-0.214-0.247-0.354-0.085-0.306-0.085-0.499c-0-0.006-0-0.014-0-0.021 0-0.178 0.043-0.346 0.119-0.495l-0.003 0.006c0.078-0.147 0.186-0.27 0.323-0.373s0.304-0.173 0.496-0.224 0.405-0.076 0.636-0.076c0.295 0 0.541 0.034 0.738 0.101s0.355 0.157 0.477 0.269 0.211 0.24 0.269 0.388 0.098 0.3 0.117 0.459l-0.8 0.101c-0.042-0.223-0.122-0.384-0.24-0.482s-0.3-0.147-0.542-0.147c-0.144 0-0.261 0.012-0.355 0.037s-0.167 0.057-0.224 0.096c-0.052 0.034-0.093 0.081-0.119 0.137l-0.001 0.002c-0.023 0.053-0.034 0.108-0.034 0.164 0 0.151 0.043 0.265 0.128 0.34s0.229 0.134 0.434 0.176l0.561 0.112c0.439 0.087 0.761 0.228 0.965 0.421s0.306 0.48 0.306 0.841c0 0.004 0 0.009 0 0.013 0 0.172-0.037 0.336-0.102 0.484l0.003-0.008c-0.071 0.155-0.171 0.286-0.294 0.39l-0.002 0.001c-0.13 0.112-0.293 0.198-0.491 0.261s-0.427 0.093-0.692 0.093c-0.553 0-0.975-0.117-1.268-0.354s-0.451-0.587-0.474-1.068z"></path>
</symbol><symbol id="wp" width="120" height="60"><path d="M50.245 34.84h2.78l2.834-9.444h-2.7l-1.678 6.7-1.8-6.7h-2.346l-1.806 6.7-1.662-6.7h-2.7l2.818 9.444h2.78l1.753-6.05zm5.76-4.695c0 2.834 1.93 4.93 4.968 4.93 2.35 0 3.613-1.41 3.974-2.076l-1.645-1.247c-.27.398-1.01 1.156-2.295 1.156-1.392 0-2.403-.903-2.457-2.167h6.65c.017-.182.017-.36.017-.543 0-3.087-1.662-5.04-4.587-5.04-2.693 0-4.624 2.13-4.624 4.985zm2.62-1.03c.108-1.082.866-1.914 2.042-1.914 1.14 0 1.968.758 2.022 1.914zm7.533 5.726h2.35v-.974c.253.307 1.193 1.2 2.8 1.2 2.7 0 4.624-2.04 4.624-4.948 0-2.925-1.77-4.964-4.48-4.964-1.624 0-2.565.903-2.8 1.227v-4.607h-2.49V34.84zm2.42-4.695c0-1.77 1.048-2.78 2.42-2.78 1.446 0 2.42 1.14 2.42 2.78 0 1.678-1.01 2.727-2.42 2.727-1.517 0-2.42-1.23-2.42-2.727zm8.325 8.072h2.49v-4.354c.236.307 1.173 1.2 2.8 1.2 2.7 0 4.48-2.04 4.48-4.964 0-2.888-1.914-4.948-4.624-4.948-1.608 0-2.548.903-2.8 1.227v-.994h-2.35v12.824zm2.42-8.126c0-1.5.903-2.727 2.42-2.727 1.41 0 2.42 1.048 2.42 2.727 0 1.645-.974 2.78-2.42 2.78-1.372 0-2.42-1.01-2.42-2.78zm7.802 1.823c0 1.985 1.624 3.16 3.54 3.16 1.085 0 1.806-.324 2.295-.85l.162.613h2.204v-5.98c0-2.113-.903-3.7-3.937-3.7a7.05 7.05 0 0 0-3.721 1.119l.94 1.7c.704-.36 1.57-.667 2.51-.667 1.102 0 1.715.56 1.715 1.392v.613c-.344-.236-1.085-.522-2.042-.522-2.204-.003-3.667 1.26-3.667 3.12zm2.49-.074c0-.775.667-1.318 1.624-1.318s1.645.49 1.645 1.318c0 .795-.688 1.3-1.624 1.3s-1.645-.522-1.645-1.3zm11.76 1.03c-1.57 0-2.7-1.14-2.7-2.743 0-1.517.994-2.764 2.602-2.764 1.065 0 1.8.522 2.204.903l.704-2.096c-.613-.468-1.59-1.01-2.98-1.01-2.872 0-5.022 2.113-5.022 4.985s2.096 4.93 5.04 4.93c1.372 0 2.403-.576 2.942-1.01l-.667-2.04c-.418.34-1.176.846-2.133.846zm3.738 1.968h2.49v-4.877l3.16 4.877h2.925l-3.576-5.167 3.323-4.28h-2.8l-3.033 3.974v-7.583h-2.49z" fill="#1a1c1c"/><path d="M34.84 38.838l-13.23 7.485v-5.828l8.244-4.536zm.906-.82v-15.65l-4.84 2.797v10.06zm-28.53.82l13.23 7.485v-5.828L12.2 35.958zm-.906-.82v-15.65l4.84 2.797v10.06zm.568-16.665l13.57-7.676v5.633l-8.764 4.822zm28.3 0l-13.57-7.676v5.633l8.764 4.818z" fill="#8ed6fb"/><path d="M20.45 39.423l-8.135-4.475v-8.86l8.135 4.696zm1.162 0l8.135-4.47v-8.864l-8.135 4.696zm-.58-8.976zm-8.166-5.382l8.166-4.488 8.166 4.488-8.166 4.714z" fill="#1c78c0"/></symbol>
</svg>