<svg aria-hidden="true" style="position: absolute; width: 0; height: 0; overflow: hidden;" version="1.1" xmlns="http://www.w3.org/2000/svg" xmlns:xlink="http://www.w3.org/1999/xlink">
<defs>
<symbol id="ae" viewBox="0 0 32 32"><path fill="#000" style="fill: var(--color1, #000)" d="M1.511 1.36h29.397v29.125h-29.397v-29.125z"></path><path fill="#d8a1ff" style="fill: var(--color2, #d8a1ff)" d="M1.511 1.36h29.397v29.125h-29.397v-29.125zM0.175 31.846h32.075v-31.846h-32.075v31.846zM22.867 15.351c0.681 0 0.925 0 0.989-0.026 0-0.098 0.026-0.164 0.026-0.229 0-0.733-0.347-2.093-1.734-2.093-1.285 0-1.83 1.145-1.965 2.355h2.685v-0.007zM20.156 17.215c0.026 1.838 0.88 3.074 2.916 3.074 0.79 0 1.471-0.111 2.177-0.419 0.096-0.039 0.161-0.026 0.161 0.098v1.701c0 0.137-0.039 0.203-0.135 0.275-0.707 0.353-1.593 0.517-2.685 0.517-3.526 0-4.849-2.655-4.849-5.605 0-3.211 1.631-5.841 4.502-5.841 2.916 0 3.931 2.492 3.931 4.52 0 0.654-0.038 1.184-0.109 1.445-0.026 0.111-0.064 0.15-0.173 0.177-0.27 0.039-1.053 0.098-2.229 0.098h-3.5v-0.039h-0.006zM12.988 15.828c-0.373-1.511-1.285-4.801-1.619-6.397h-0.026c-0.283 1.589-1.015 4.284-1.561 6.397h3.205zM9.238 18.032l-1.053 4.068c-0.026 0.111-0.064 0.15-0.199 0.15h-1.972c-0.135 0-0.161-0.039-0.135-0.203l3.796-13.513c0.064-0.242 0.109-0.438 0.135-1.118 0-0.098 0.039-0.137 0.109-0.137h2.807c0.096 0 0.135 0.026 0.161 0.137l4.245 14.658c0.026 0.111 0 0.177-0.109 0.177h-2.203c-0.109 0-0.173-0.039-0.199-0.137l-1.098-4.081h-4.284z"></path></symbol>
<symbol id="ai" viewBox="0 0 32 32"><path fill="#000" style="fill: var(--color1, #000)" d="M1.511 1.36h29.397v29.125h-29.397v-29.125z"></path><path fill="#ff7f18" style="fill: var(--color3, #ff7f18)" d="M1.511 1.36h29.397v29.125h-29.397v-29.125zM0.175 31.846h32.075v-31.846h-32.075v31.846zM21.184 11.354c0-0.111 0.039-0.164 0.161-0.164h2.1c0.109 0 0.161 0.039 0.161 0.164v10.74c0 0.111-0.026 0.164-0.161 0.164h-2.075c-0.135 0-0.173-0.065-0.173-0.177v-10.727h-0.013zM21.036 8.261c0-0.87 0.604-1.387 1.362-1.387 0.816 0 1.362 0.556 1.362 1.387 0 0.896-0.572 1.387-1.387 1.387-0.771 0.007-1.336-0.484-1.336-1.387zM15.024 15.828c-0.373-1.511-1.259-4.801-1.593-6.397h-0.026c-0.283 1.589-0.989 4.284-1.548 6.397h3.166zM11.312 18.032l-1.053 4.081c-0.026 0.111-0.064 0.137-0.199 0.137h-1.965c-0.135 0-0.161-0.039-0.135-0.203l3.796-13.526c0.064-0.242 0.109-0.464 0.135-1.132 0-0.098 0.039-0.137 0.109-0.137h2.807c0.096 0 0.135 0.026 0.161 0.137l4.252 14.684c0.026 0.111 0 0.177-0.109 0.177h-2.216c-0.109 0-0.173-0.026-0.199-0.124l-1.098-4.094h-4.284z"></path></symbol>
<symbol id="ball" viewBox="0 0 32 32"><path d="M15.643 0c-8.619 0-15.643 7.184-15.643 15.999s7.024 15.999 15.643 15.999c8.619 0 15.643-7.184 15.643-15.999s-7.024-15.999-15.643-15.999zM15.643 2.461c3.144 0 6.017 1.115 8.28 2.984-1.151 1.446-3.264 3.454-6.806 4.769-1.925-3.561-3.535-5.838-4.655-7.346 1.015-0.254 2.083-0.408 3.181-0.408zM10.078 3.731c0.94 1.238 2.64 3.569 4.663 7.215-5.197 1.392-9.89 1.485-11.845 1.423 1.045-3.846 3.693-6.992 7.182-8.638zM25.654 7.154c2.001 2.377 3.226 5.461 3.226 8.846 0 0.508-0.030 1-0.083 1.492-0.436-0.062-0.76-0.115-1.316-0.162-1.865-0.146-4.332-0.146-7.002 0.262-0.699-1.854-1.467-3.569-2.256-5.177 3.715-1.454 6.069-3.6 7.431-5.261zM15.884 13.176c0.76 1.523 1.497 3.154 2.181 4.907-3.166 0.961-6.047 3.154-8.258 5.192-1.181 1.077-2.151 2.108-2.873 2.915-2.775-2.484-4.535-6.115-4.535-10.184 0-0.408 0.030-0.792 0.060-1.185 1.715 0.069 7.197 0.123 13.425-1.646zM23.848 19.714c1.85-0.069 3.309 0.062 4.467 0.192-0.872 3.008-2.745 5.569-5.22 7.292-0.399-2.531-1.015-4.961-1.76-7.253 0.865-0.115 1.715-0.192 2.512-0.231zM18.93 20.391c0.857 2.531 1.534 5.231 1.918 8.061-1.602 0.692-3.354 1.085-5.212 1.085-2.474 0-4.768-0.7-6.746-1.892 0.669-0.731 1.497-1.615 2.52-2.546 2.128-1.954 4.904-3.946 7.521-4.708z"></path></symbol>
<symbol id="be" viewBox="0 0 32 32"><path stroke-linejoin="miter" stroke-linecap="butt" stroke-miterlimit="4" stroke-width="0.3902" d="M26.72 0.169h-22.134c-2.529 0-4.586 2.051-4.586 4.573v22.073c0 2.522 2.057 4.573 4.586 4.573h22.134c2.529 0 4.586-2.052 4.586-4.573v-22.073c0-2.522-2.057-4.573-4.586-4.573zM29.472 26.816c0 1.513-1.234 2.744-2.752 2.744h-22.134c-1.517 0-2.752-1.231-2.752-2.744v-22.073c0-1.513 1.234-2.744 2.752-2.744h22.134c1.517 0 2.752 1.231 2.752 2.744v22.073z"></path><path stroke-linejoin="miter" stroke-linecap="butt" stroke-miterlimit="4" stroke-width="0.3902" d="M14.736 13.035c0-2.017-1.646-3.659-3.669-3.659h-5.503v12.805h5.503c2.023 0 3.669-1.641 3.669-3.659 0-1.092-0.483-2.073-1.246-2.744 0.763-0.671 1.246-1.652 1.246-2.744zM12.902 18.523c0 1.009-0.823 1.829-1.834 1.829h-3.669v-3.659h3.669c1.011 0 1.834 0.821 1.834 1.829zM7.399 14.864v-3.659h3.669c1.011 0 1.834 0.821 1.834 1.829s-0.823 1.829-1.834 1.829h-3.669z"></path><path stroke-linejoin="miter" stroke-linecap="butt" stroke-miterlimit="4" stroke-width="0.3902" d="M21.156 13.035c-2.529 0-4.586 2.051-4.586 4.573s2.057 4.573 4.586 4.573c1.632 0 3.154-0.876 3.972-2.286l-1.588-0.916c-0.491 0.847-1.405 1.373-2.384 1.373-1.196 0-2.216-0.765-2.594-1.829h7.18v-0.915c0-2.522-2.057-4.573-4.586-4.573zM18.562 16.694c0.379-1.065 1.398-1.829 2.594-1.829s2.216 0.765 2.594 1.829h-5.189z"></path><path stroke-linejoin="miter" stroke-linecap="butt" stroke-miterlimit="4" stroke-width="0.3902" d="M17.487 9.377h7.337v1.829h-7.337v-1.829z"></path></symbol>
<symbol id="close" viewBox="0 0 32 32"><path d="M32 3.223l-3.223-3.223-12.777 12.777-12.777-12.777-3.223 3.223 12.777 12.777-12.777 12.777 3.223 3.223 12.777-12.777 12.777 12.777 3.223-3.223-12.777-12.777 12.777-12.777z"></path></symbol>
<symbol id="figma" viewBox="0 0 21 32"><path fill="#0acf83" style="fill: var(--color4, #0acf83)" d="M5.41 31.997c2.89 0 5.235-2.387 5.235-5.331v-5.331h-5.235c-2.89 0-5.235 2.387-5.235 5.331s2.344 5.331 5.235 5.331z"></path><path fill="#a259ff" style="fill: var(--color5, #a259ff)" d="M0.175 15.998c0-2.943 2.344-5.331 5.235-5.331h5.235v10.668h-5.235c-2.89-0.007-5.235-2.394-5.235-5.337z"></path><path fill="#f24e1e" style="fill: var(--color6, #f24e1e)" d="M0.175 5.331c0-2.943 2.344-5.331 5.235-5.331h5.235v10.668h-5.235c-2.89 0-5.235-2.394-5.235-5.337z"></path><path fill="#ff7262" style="fill: var(--color7, #ff7262)" d="M10.651 0h5.235c2.89 0 5.235 2.387 5.235 5.331s-2.344 5.331-5.235 5.331h-5.235v-10.661z"></path><path fill="#1abcfe" style="fill: var(--color8, #1abcfe)" d="M21.12 15.998c0 2.943-2.344 5.331-5.235 5.331s-5.235-2.387-5.235-5.331c0-2.943 2.344-5.331 5.235-5.331s5.235 2.387 5.235 5.331z"></path></symbol>
<symbol id="insta" viewBox="0 0 32 32"><path d="M9.085 0.008c-5.001 0-9.085 4.176-9.085 9.29v13.427c0 5.106 4.084 9.274 9.085 9.274h13.131c4.994 0 9.070-4.176 9.070-9.29v-13.419c0-5.114-4.076-9.29-9.078-9.29l-13.124 0.008zM9.085 2.469h13.124c3.7 0 6.671 3.038 6.671 6.829v13.419c0 3.791-2.971 6.829-6.663 6.829h-13.131c-3.708 0-6.678-3.038-6.678-6.813v-13.427c0.008-3.799 2.978-6.836 6.678-6.836zM25.277 4.929c-0.669 0-1.203 0.546-1.203 1.23s0.534 1.23 1.203 1.23c0.669 0 1.203-0.546 1.203-1.23s-0.534-1.23-1.203-1.23zM15.651 7.39c-4.633 0-8.423 3.876-8.423 8.613s3.79 8.613 8.423 8.613c4.633 0 8.423-3.876 8.423-8.613s-3.79-8.613-8.423-8.613zM15.651 9.851c3.339 0 6.017 2.738 6.017 6.152s-2.677 6.152-6.017 6.152c-3.339 0-6.017-2.738-6.017-6.152s2.677-6.152 6.017-6.152z"></path></symbol>
<symbol id="linkedIn" viewBox="0 0 32 32"><path stroke-linejoin="miter" stroke-linecap="butt" stroke-miterlimit="4" stroke-width="0.381" d="M26.882 0.655h-21.637c-2.472 0-4.483 2.006-4.483 4.471v21.579c0 2.465 2.011 4.471 4.483 4.471h21.637c2.472 0 4.483-2.006 4.483-4.471v-21.579c0-2.465-2.011-4.471-4.483-4.471zM29.572 26.705c0 1.479-1.207 2.683-2.69 2.683h-21.637c-1.483 0-2.69-1.203-2.69-2.683v-21.579c0-1.479 1.207-2.683 2.69-2.683h21.637c1.483 0 2.69 1.203 2.69 2.683v21.579z"></path><path d="M24.478 22.778c-1.095 0-2.181 0-3.285 0 0-0.053 0-0.102 0-0.151 0-1.779-0-3.557 0-5.336 0-0.379-0.028-0.752-0.123-1.122-0.393-1.523-2.089-1.434-2.763-0.712-0.339 0.363-0.561 0.773-0.57 1.279-0.002 0.121-0.009 0.241-0.009 0.362-0.001 1.841-0 3.682-0 5.523 0 0.050 0 0.099 0 0.157-1.099 0-2.186 0-3.279 0 0-3.395 0-6.786 0-10.183 1.092 0 2.178 0 3.277 0 0 0.46 0 0.913 0 1.366 0.009 0.004 0.017 0.008 0.026 0.011 0.023-0.032 0.047-0.063 0.070-0.095 0.329-0.456 0.706-0.861 1.208-1.134 0.56-0.306 1.165-0.408 1.795-0.39 0.682 0.020 1.329 0.173 1.912 0.54 0.747 0.47 1.203 1.159 1.47 1.984 0.208 0.643 0.276 1.307 0.277 1.979 0.002 1.934 0.001 3.869 0 5.803 0 0.038-0.003 0.076-0.006 0.119z"></path><path d="M12.445 22.783c-1.091 0-2.171 0-3.261 0 0-3.396 0-6.791 0-10.192 1.084 0 2.168 0 3.261 0 0 3.393 0 6.788 0 10.192z"></path><path d="M10.954 7.522c1.027-0.001 1.754 0.729 1.757 1.766 0.003 1.026-0.734 1.752-1.781 1.752-1.022 0.001-1.75-0.73-1.752-1.756s0.737-1.76 1.776-1.762z"></path></symbol>
<symbol id="menu" viewBox="0 0 53 32"><path d="M0 0h52.8v6.14h-52.8v-6.14z"></path><path d="M0 12.278h52.8v6.14h-52.8v-6.14z"></path><path d="M0 24.559h52.8v6.14h-52.8v-6.14z"></path></symbol>
<symbol id="ps" viewBox="0 0 32 32"><path fill="#000" style="fill: var(--color1, #000)" d="M1.335 1.359h29.363v29.071h-29.363v-29.071z"></path><path fill="#31c5f0" style="fill: var(--color9, #31c5f0)" d="M1.335 1.359h29.363v29.071h-29.363v-29.071zM0 31.789h32.026v-31.789h-32.026v31.789zM21.597 13.046c-1.053 0-1.412 0.542-1.412 0.993 0 0.49 0.237 0.83 1.656 1.574 2.092 1.032 2.747 2.025 2.747 3.476 0 2.175-1.63 3.345-3.832 3.345-1.162 0-2.163-0.242-2.734-0.581-0.096-0.039-0.109-0.111-0.109-0.216v-2.006c0-0.137 0.064-0.176 0.16-0.111 0.841 0.555 1.803 0.804 2.683 0.804 1.053 0 1.495-0.451 1.495-1.058 0-0.49-0.308-0.921-1.656-1.633-1.893-0.921-2.683-1.855-2.683-3.423 0-1.751 1.348-3.208 3.684-3.208 1.149 0 1.951 0.176 2.388 0.379 0.109 0.065 0.135 0.176 0.135 0.274v1.862c0 0.111-0.064 0.176-0.199 0.137-0.59-0.379-1.457-0.608-2.323-0.608zM10.121 14.66c0.308 0.026 0.546 0.026 1.078 0.026 1.56 0 3.029-0.555 3.029-2.718 0-1.725-1.053-2.594-2.83-2.594-0.533 0-1.040 0.026-1.284 0.039l0.006 5.246zM7.74 7.447c0-0.098 0.186-0.163 0.295-0.163 0.854-0.039 2.124-0.065 3.44-0.065 3.697 0 5.141 2.064 5.141 4.697 0 3.449-2.458 4.932-5.475 4.932-0.507 0-0.68-0.026-1.040-0.026v5.213c0 0.111-0.039 0.163-0.16 0.163h-2.041c-0.109 0-0.16-0.039-0.16-0.163v-14.588z"></path></symbol>
<symbol id="star" viewBox="0 0 35 32"><path d="M15.669 1.375c0.48-1.472 2.563-1.472 3.043 0l2.802 8.599c0.215 0.659 0.829 1.104 1.521 1.104h9.057c1.551 0 2.195 1.986 0.939 2.896l-7.32 5.303c-0.562 0.408-0.798 1.131-0.583 1.791l2.798 8.587c0.48 1.473-1.205 2.7-2.46 1.791l-7.337-5.316c-0.56-0.406-1.317-0.406-1.877 0l-7.337 5.316c-1.255 0.909-2.94-0.318-2.46-1.791l2.798-8.587c0.215-0.66-0.020-1.384-0.583-1.791l-7.32-5.303c-1.256-0.91-0.612-2.896 0.939-2.896h9.057c0.693 0 1.307-0.446 1.521-1.104l2.802-8.599z"></path></symbol>
<symbol id="git" viewBox="0 0 64 64"><path d="M32 6C17.641 6 6 17.641 6 32c0 12.277 8.512 22.56 19.955 25.286-.592-.141-1.179-.299-1.755-.479V50.85c0 0-.975.325-2.275.325-3.637 0-5.148-3.245-5.525-4.875-.229-.993-.827-1.934-1.469-2.509-.767-.684-1.126-.686-1.131-.92-.01-.491.658-.471.975-.471 1.625 0 2.857 1.729 3.429 2.623 1.417 2.207 2.938 2.577 3.721 2.577.975 0 1.817-.146 2.397-.426.268-1.888 1.108-3.57 2.478-4.774-6.097-1.219-10.4-4.716-10.4-10.4 0-2.928 1.175-5.619 3.133-7.792C19.333 23.641 19 22.494 19 20.625c0-1.235.086-2.751.65-4.225 0 0 3.708.026 7.205 3.338C28.469 19.268 30.196 19 32 19s3.531.268 5.145.738c3.497-3.312 7.205-3.338 7.205-3.338.567 1.474.65 2.99.65 4.225 0 2.015-.268 3.19-.432 3.697C46.466 26.475 47.6 29.124 47.6 32c0 5.684-4.303 9.181-10.4 10.4 1.628 1.43 2.6 3.513 2.6 5.85v8.557c-.576.181-1.162.338-1.755.479C49.488 54.56 58 44.277 58 32 58 17.641 46.359 6 32 6zM33.813 57.93C33.214 57.972 32.61 58 32 58 32.61 58 33.213 57.971 33.813 57.93zM37.786 57.346c-1.164.265-2.357.451-3.575.554C35.429 57.797 36.622 57.61 37.786 57.346zM32 58c-.61 0-1.214-.028-1.813-.07C30.787 57.971 31.39 58 32 58zM29.788 57.9c-1.217-.103-2.411-.289-3.574-.554C27.378 57.61 28.571 57.797 29.788 57.9z"></path></symbol>
<symbol id="fb" viewBox="0 0 50 50"><path d="M 9 4 C 6.2504839 4 4 6.2504839 4 9 L 4 41 C 4 43.749516 6.2504839 46 9 46 L 25.832031 46 A 1.0001 1.0001 0 0 0 26.158203 46 L 31.832031 46 A 1.0001 1.0001 0 0 0 32.158203 46 L 41 46 C 43.749516 46 46 43.749516 46 41 L 46 9 C 46 6.2504839 43.749516 4 41 4 L 9 4 z M 9 6 L 41 6 C 42.668484 6 44 7.3315161 44 9 L 44 41 C 44 42.668484 42.668484 44 41 44 L 33 44 L 33 30 L 36.820312 30 L 38.220703 23 L 33 23 L 33 21 C 33 20.442508 33.05305 20.398929 33.240234 20.277344 C 33.427419 20.155758 34.005822 20 35 20 L 38 20 L 38 14.369141 L 37.429688 14.097656 C 37.429688 14.097656 35.132647 13 32 13 C 29.75 13 27.901588 13.896453 26.71875 15.375 C 25.535912 16.853547 25 18.833333 25 21 L 25 23 L 22 23 L 22 30 L 25 30 L 25 44 L 9 44 C 7.3315161 44 6 42.668484 6 41 L 6 9 C 6 7.3315161 7.3315161 6 9 6 z M 32 15 C 34.079062 15 35.38736 15.458455 36 15.701172 L 36 18 L 35 18 C 33.849178 18 32.926956 18.0952 32.150391 18.599609 C 31.373826 19.104024 31 20.061492 31 21 L 31 25 L 35.779297 25 L 35.179688 28 L 31 28 L 31 44 L 27 44 L 27 28 L 24 28 L 24 25 L 27 25 L 27 21 C 27 19.166667 27.464088 17.646453 28.28125 16.625 C 29.098412 15.603547 30.25 15 32 15 z"></path></symbol>
<symbol id="li" viewBox="0 0 50 50"><path d="M 9 4 C 6.2504839 4 4 6.2504839 4 9 L 4 41 C 4 43.749516 6.2504839 46 9 46 L 41 46 C 43.749516 46 46 43.749516 46 41 L 46 9 C 46 6.2504839 43.749516 4 41 4 L 9 4 z M 9 6 L 41 6 C 42.668484 6 44 7.3315161 44 9 L 44 41 C 44 42.668484 42.668484 44 41 44 L 9 44 C 7.3315161 44 6 42.668484 6 41 L 6 9 C 6 7.3315161 7.3315161 6 9 6 z M 14 11.011719 C 12.904779 11.011719 11.919219 11.339079 11.189453 11.953125 C 10.459687 12.567171 10.011719 13.484511 10.011719 14.466797 C 10.011719 16.333977 11.631285 17.789609 13.691406 17.933594 A 0.98809878 0.98809878 0 0 0 13.695312 17.935547 A 0.98809878 0.98809878 0 0 0 14 17.988281 C 16.27301 17.988281 17.988281 16.396083 17.988281 14.466797 A 0.98809878 0.98809878 0 0 0 17.986328 14.414062 C 17.884577 12.513831 16.190443 11.011719 14 11.011719 z M 14 12.988281 C 15.392231 12.988281 15.94197 13.610038 16.001953 14.492188 C 15.989803 15.348434 15.460091 16.011719 14 16.011719 C 12.614594 16.011719 11.988281 15.302225 11.988281 14.466797 C 11.988281 14.049083 12.140703 13.734298 12.460938 13.464844 C 12.78117 13.19539 13.295221 12.988281 14 12.988281 z M 11 19 A 1.0001 1.0001 0 0 0 10 20 L 10 39 A 1.0001 1.0001 0 0 0 11 40 L 17 40 A 1.0001 1.0001 0 0 0 18 39 L 18 33.134766 L 18 20 A 1.0001 1.0001 0 0 0 17 19 L 11 19 z M 20 19 A 1.0001 1.0001 0 0 0 19 20 L 19 39 A 1.0001 1.0001 0 0 0 20 40 L 26 40 A 1.0001 1.0001 0 0 0 27 39 L 27 29 C 27 28.170333 27.226394 27.345035 27.625 26.804688 C 28.023606 26.264339 28.526466 25.940057 29.482422 25.957031 C 30.468166 25.973981 30.989999 26.311669 31.384766 26.841797 C 31.779532 27.371924 32 28.166667 32 29 L 32 39 A 1.0001 1.0001 0 0 0 33 40 L 39 40 A 1.0001 1.0001 0 0 0 40 39 L 40 28.261719 C 40 25.300181 39.122788 22.95433 37.619141 21.367188 C 36.115493 19.780044 34.024172 19 31.8125 19 C 29.710483 19 28.110853 19.704889 27 20.423828 L 27 20 A 1.0001 1.0001 0 0 0 26 19 L 20 19 z M 12 21 L 16 21 L 16 33.134766 L 16 38 L 12 38 L 12 21 z M 21 21 L 25 21 L 25 22.560547 A 1.0001 1.0001 0 0 0 26.798828 23.162109 C 26.798828 23.162109 28.369194 21 31.8125 21 C 33.565828 21 35.069366 21.582581 36.167969 22.742188 C 37.266572 23.901794 38 25.688257 38 28.261719 L 38 38 L 34 38 L 34 29 C 34 27.833333 33.720468 26.627107 32.990234 25.646484 C 32.260001 24.665862 31.031834 23.983076 29.517578 23.957031 C 27.995534 23.930001 26.747519 24.626988 26.015625 25.619141 C 25.283731 26.611293 25 27.829667 25 29 L 25 38 L 21 38 L 21 21 z"></path></symbol>
<symbol id="html" viewBox="0 0 48 48"><path fill="#E65100" d="M41,5H7l3,34l14,4l14-4L41,5L41,5z"/><path fill="#FF6D00" d="M24 8L24 39.9 35.2 36.7 37.7 8z"/><path fill="#FFF" d="M24,25v-4h8.6l-0.7,11.5L24,35.1v-4.2l4.1-1.4l0.3-4.5H24z M32.9,17l0.3-4H24v4H32.9z"/><path fill="#EEE" d="M24,30.9v4.2l-7.9-2.6L15.7,27h4l0.2,2.5L24,30.9z M19.1,17H24v-4h-9.1l0.7,12H24v-4h-4.6L19.1,17z"></path></symbol>
<symbol id="css" viewBox="0 0 48 48"><path fill="#0277BD" d="M41,5H7l3,34l14,4l14-4L41,5L41,5z"/><path fill="#039BE5" d="M24 8L24 39.9 35.2 36.7 37.7 8z"/><path fill="#FFF" d="M33.1 13L24 13 24 17 28.9 17 28.6 21 24 21 24 25 28.4 25 28.1 29.5 24 30.9 24 35.1 31.9 32.5 32.6 21 32.6 21z"/><path fill="#EEE" d="M24,13v4h-8.9l-0.3-4H24z M19.4,21l0.2,4H24v-4H19.4z M19.8,27h-4l0.3,5.5l7.9,2.6v-4.2l-4.1-1.4L19.8,27z"></path></symbol>
<symbol id="js" viewBox="0 0 48 48"><path fill="#ffd600" d="M6,42V6h36v36H6z"/><path fill="#000001" d="M29.538 32.947c.692 1.124 1.444 2.201 3.037 2.201 1.338 0 2.04-.665 2.04-1.585 0-1.101-.726-1.492-2.198-2.133l-.807-.344c-2.329-.988-3.878-2.226-3.878-4.841 0-2.41 1.845-4.244 4.728-4.244 2.053 0 3.528.711 4.592 2.573l-2.514 1.607c-.553-.988-1.151-1.377-2.078-1.377-.946 0-1.545.597-1.545 1.377 0 .964.6 1.354 1.985 1.951l.807.344C36.452 29.645 38 30.839 38 33.523 38 36.415 35.716 38 32.65 38c-2.999 0-4.702-1.505-5.65-3.368L29.538 32.947zM17.952 33.029c.506.906 1.275 1.603 2.381 1.603 1.058 0 1.667-.418 1.667-2.043V22h3.333v11.101c0 3.367-1.953 4.899-4.805 4.899-2.577 0-4.437-1.746-5.195-3.368L17.952 33.029z"></path></symbol>
</defs>
</svg>
